<?xml version="1.0" encoding="UTF-8" standalone="no"?>
<svg
   id="Layer_1"
   data-name="Layer 1"
   viewBox="0 0 40 40"
   version="1.1"
   sodipodi:docname="icon-network.svg"
   width="40"
   height="40"
   inkscape:version="1.2.2 (1:1.2.2+202212051550+b0a8486541)"
   xmlns:inkscape="http://www.inkscape.org/namespaces/inkscape"
   xmlns:sodipodi="http://sodipodi.sourceforge.net/DTD/sodipodi-0.dtd"
   xmlns="http://www.w3.org/2000/svg"
   xmlns:svg="http://www.w3.org/2000/svg"
   xmlns:rdf="http://www.w3.org/1999/02/22-rdf-syntax-ns#"
   xmlns:cc="http://creativecommons.org/ns#"
   xmlns:dc="http://purl.org/dc/elements/1.1/">
  <sodipodi:namedview
     id="namedview30374"
     pagecolor="#ffffff"
     bordercolor="#000000"
     borderopacity="0.25"
     inkscape:showpageshadow="2"
     inkscape:pageopacity="0.0"
     inkscape:pagecheckerboard="0"
     inkscape:deskcolor="#d1d1d1"
     showgrid="false"
     inkscape:zoom="5.9441164"
     inkscape:cx="19.851563"
     inkscape:cy="14.888672"
     inkscape:window-width="1298"
     inkscape:window-height="704"
     inkscape:window-x="68"
     inkscape:window-y="27"
     inkscape:window-maximized="1"
     inkscape:current-layer="Layer_1" />
  <defs
     id="defs30351">
    <style
       id="style30349">.cls-1{fill:#2e79bd;}.cls-2{fill:#2d3e50;}</style>
  </defs>
  <title
     id="title30353">b</title>
  <g
     id="g32478"
     transform="matrix(0.32850619,0,0,-0.32850636,-1.0286983,41.020046)">
    <circle
       style="opacity:0.15;fill:#0486be;fill-opacity:1;stroke-width:7.59225"
       id="path31656-3-2"
       cx="114.33978"
       cy="115.40825"
       r="7.9635162" />
    <circle
       style="opacity:0.15;fill:#0486be;fill-opacity:1;stroke-width:7.59225"
       id="path31656-3-6"
       cx="115.3298"
       cy="13.338951"
       r="7.9635162" />
    <circle
       style="opacity:0.15;fill:#0486be;fill-opacity:1;stroke-width:7.59225"
       id="path31656-3-5"
       cx="14.539055"
       cy="13.945396"
       r="7.9635162" />
    <circle
       style="opacity:0.15;fill:#0486be;fill-opacity:1;stroke-width:7.59225"
       id="path31656-3"
       cx="14.173218"
       cy="113.63544"
       r="7.9635162" />
    <path
       class="cls-1"
       d="m 83.40387,70.90745 a 20.61285,20.61285 0 0 0 6e-4,-13.81414 Q 83.20628,56.53739 82.97805,55.99695 A 20.59366,20.59366 0 0 0 64.15819,43.40505 l -0.15766,-0.0012 -0.14745,0.0012 a 20.59922,20.59922 0 0 0 -18.83121,12.5919 q -0.22883,0.54059 -0.42582,1.09576 a 20.6152,20.6152 0 0 0 -5.3e-4,13.81474 c 0.132,0.37046 0.27431,0.73641 0.42747,1.09516 A 20.59152,20.59152 0 0 0 63.84286,84.5945 l 0.15766,0.0011 0.14745,-0.0011 A 20.59774,20.59774 0 0 0 82.97805,72.0026 q 0.22884,-0.53969 0.42582,-1.09515 z M 56.15085,48.7922 q -0.31165,0.51581 -0.60053,1.07533 a 25.53735,25.53735 0 0 0 -2.10048,5.77368 h -4.38017 a 17.07743,17.07743 0 0 1 7.08118,-6.84901 z m -9.26473,15.2069 a 17.02665,17.02665 0 0 1 0.7081,-4.87592 h 5.21468 a 38.07806,38.07806 0 0 0 0,9.7538 H 47.59421 A 17.04533,17.04533 0 0 1 46.88612,63.9991 Z m 2.18355,8.35924 h 4.38017 a 25.59321,25.59321 0 0 0 2.1,5.77473 q 0.28855,0.55772 0.59933,1.07412 a 17.0778,17.0778 0 0 1 -7.0795,-6.84885 z m 13.18957,8.31177 C 60.12008,79.5727 58.19552,76.51302 57.05537,72.35834 h 5.20387 z m 0,-11.79314 h -5.92909 a 33.81917,33.81917 0 0 1 0,-9.7538 h 5.92909 z m 0,-13.23577 h -5.20387 c 1.14015,-4.15423 3.06471,-7.21376 5.20387,-8.31132 z m 16.67222,0 H 74.55008 A 25.47162,25.47162 0 0 0 72.4496,49.86752 q -0.28855,-0.55749 -0.60053,-1.07533 a 17.08343,17.08343 0 0 1 7.08239,6.84902 z M 65.74128,47.32929 c 2.13856,1.09756 4.06312,4.15709 5.20327,8.31192 h -5.20327 z m 0,33.34083 v -8.31178 h 5.20327 c -1.14015,4.15529 -3.06471,7.21496 -5.20327,8.31177 z m 0,-11.79314 v -9.7538 h 5.92849 a 33.81917,33.81917 0 0 1 0,9.7538 z M 71.8502,79.2072 q 0.31,-0.51468 0.59941,-1.07352 a 25.49644,25.49644 0 0 0 2.10048,-5.77533 h 4.38138 A 17.08879,17.08879 0 0 1 71.8502,79.2072 Z M 80.40631,68.877 H 75.191 a 38.04192,38.04192 0 0 0 6e-4,-9.7538 h 5.21469 a 17.16071,17.16071 0 0 1 0,9.7538 z"
       id="path30355"
       style="fill:#0486be;fill-opacity:1" />
    <path
       class="cls-2"
       d="M 66.23576,102.42572 V 91.41887 a 2.23576,2.23576 0 1 0 -4.47151,0 v 11.00685 a 10.9086,10.9086 0 1 0 4.47151,0 z"
       id="path30357"
       style="fill:#0486be;fill-opacity:1" />
    <path
       class="cls-1"
       d="m 83.38487,46.851 a 2.21648,2.21648 0 0 0 1.57235,-0.6634 L 108.016,23.24636 a 10.903,10.903 0 0 0 13.6848,-16.82965 10.90852,10.90852 0 0 0 -18.62314,7.71447 10.60033,10.60033 0 0 0 1.79349,5.97033 L 81.81244,43.0427 a 2.23937,2.23937 0 0 0 0,3.14486 2.21665,2.21665 0 0 0 1.57243,0.66344 z M 109.441,9.56157 a 6.46487,6.46487 0 0 1 9.1396,0 6.4951,6.4951 0 0 1 0,9.13952 6.46265,6.46265 0 0 1 -9.1396,-9.13952 z"
       id="path30359"
       style="fill:#0486be;fill-opacity:1" />
    <path
       class="cls-1"
       d="m 113.86875,103.07755 a 10.6,10.6 0 0 0 -5.97025,1.79356 L 84.95722,81.81244 a 2.23928,2.23928 0 0 0 -3.14478,0 2.19522,2.19522 0 0 0 0,3.14486 l 22.9412,23.05867 a 10.8954,10.8954 0 1 0 9.11511,-4.93842 z m 4.56976,15.503 a 6.49505,6.49505 0 0 1 -9.1396,0 6.46161,6.46161 0 1 1 9.1396,0 z"
       id="path30361"
       style="fill:#0486be;fill-opacity:1" />
    <path
       class="cls-1"
       d="m 44.61513,81.149 a 2.21648,2.21648 0 0 0 -1.57235,0.6634 L 19.984,104.75364 a 10.89545,10.89545 0 1 0 4.93834,9.115 10.59984,10.59984 0 0 0 -1.79349,-5.97018 L 46.18756,84.9573 a 2.23937,2.23937 0 0 0 0,-3.14486 A 2.21665,2.21665 0 0 0 44.61513,81.149 Z M 18.559,118.43843 a 6.46487,6.46487 0 0 1 -9.1396,0 6.4951,6.4951 0 0 1 0,-9.13952 6.46265,6.46265 0 0 1 9.1396,9.13952 z"
       id="path30363"
       style="fill:#0486be;fill-opacity:1" />
    <path
       class="cls-1"
       d="m 14.13125,24.9223 a 10.59984,10.59984 0 0 0 5.97025,-1.79341 l 22.94128,23.05867 a 2.23928,2.23928 0 0 0 3.14478,0 2.19522,2.19522 0 0 0 0,-3.14486 L 23.24636,19.984 A 10.903,10.903 0 0 0 6.41663,6.29923 10.90845,10.90845 0 0 0 14.13125,24.9223 Z M 9.56149,9.41945 a 6.49505,6.49505 0 0 1 9.1396,0 6.46161,6.46161 0 1 1 -9.1396,0 z"
       id="path30365"
       style="fill:#0486be;fill-opacity:1" />
    <path
       class="cls-2"
       d="m 61.76424,25.57428 v 11.00685 a 2.23576,2.23576 0 0 0 4.47151,0 V 25.57428 a 10.9086,10.9086 0 1 0 -4.47151,0 z"
       id="path30367"
       style="fill:#0486be;fill-opacity:1" />
    <path
       class="cls-2"
       d="m 113.11318,53.0914 a 10.93639,10.93639 0 0 0 -10.68746,8.67292 H 91.41887 a 2.23568,2.23568 0 1 0 0,4.47136 h 11.00685 A 10.91324,10.91324 0 1 0 113.11318,53.0914 Z"
       id="path30369"
       style="fill:#0486be;fill-opacity:1" />
    <path
       class="cls-2"
       d="m 25.57428,61.76432 a 10.9086,10.9086 0 1 0 0,4.47136 h 11.00685 a 2.23568,2.23568 0 1 0 0,-4.47136 z"
       id="path30371"
       style="fill:#0486be;fill-opacity:1" />
    <circle
       style="opacity:0.15;fill:#0486be;fill-opacity:1;stroke-width:19.6358"
       id="path31656"
       cx="63.999996"
       cy="63.999699"
       r="20.596001" />
  </g>
  <metadata
     id="metadata32573">
    <rdf:RDF>
      <cc:Work
         rdf:about="">
        <dc:title>b</dc:title>
      </cc:Work>
    </rdf:RDF>
  </metadata>
</svg>
