<?xml version="1.0" encoding="UTF-8" standalone="no"?>
<!-- Generator: Adobe Illustrator 19.0.0, SVG Export Plug-In . SVG Version: 6.00 Build 0)  -->

<svg
   version="1.1"
   id="Capa_1"
   x="0px"
   y="0px"
   viewBox="0 0 40 39.322033"
   xml:space="preserve"
   sodipodi:docname="icon-server.svg"
   width="40"
   height="39.322033"
   inkscape:version="1.2.2 (1:1.2.2+202212051550+b0a8486541)"
   xmlns:inkscape="http://www.inkscape.org/namespaces/inkscape"
   xmlns:sodipodi="http://sodipodi.sourceforge.net/DTD/sodipodi-0.dtd"
   xmlns="http://www.w3.org/2000/svg"
   xmlns:svg="http://www.w3.org/2000/svg"><defs
   id="defs15639" /><sodipodi:namedview
   id="namedview15637"
   pagecolor="#ffffff"
   bordercolor="#000000"
   borderopacity="0.25"
   inkscape:showpageshadow="2"
   inkscape:pageopacity="0.0"
   inkscape:pagecheckerboard="0"
   inkscape:deskcolor="#d1d1d1"
   showgrid="false"
   inkscape:zoom="4.637931"
   inkscape:cx="-4.7434944"
   inkscape:cy="25.118959"
   inkscape:window-width="1298"
   inkscape:window-height="704"
   inkscape:window-x="68"
   inkscape:window-y="27"
   inkscape:window-maximized="1"
   inkscape:current-layer="Capa_1" />


















































<g
   id="g24918"
   transform="scale(0.6779661)"><g
     id="g24861"
     style="opacity:0.15;fill:#006594;fill-opacity:1;stroke:none"><path
       style="fill:#006594;fill-opacity:1;stroke:none;stroke-opacity:1"
       d="M 54.892,19.5 H 4.108 C 2.116,19.5 0.5,17.884 0.5,15.892 V 4.108 C 0.5,2.116 2.116,0.5 4.108,0.5 h 50.783 c 1.993,0 3.609,1.616 3.609,3.608 v 11.783 c 0,1.993 -1.616,3.609 -3.608,3.609 z"
       id="path24852" /><path
       style="fill:#006594;fill-opacity:1;stroke:none;stroke-opacity:1"
       d="M 54.892,38.5 H 4.108 C 2.116,38.5 0.5,36.884 0.5,34.892 V 23.108 C 0.5,21.116 2.116,19.5 4.108,19.5 h 50.783 c 1.993,0 3.608,1.616 3.608,3.608 V 34.891 C 58.5,36.884 56.884,38.5 54.892,38.5 Z"
       id="path24854" /><path
       style="fill:#006594;fill-opacity:1;stroke:none;stroke-opacity:1"
       d="M 54.892,57.5 H 4.108 C 2.116,57.5 0.5,55.884 0.5,53.892 V 42.108 C 0.5,40.116 2.116,38.5 4.108,38.5 h 50.783 c 1.993,0 3.608,1.616 3.608,3.608 V 53.891 C 58.5,55.884 56.884,57.5 54.892,57.5 Z"
       id="path24856" /></g><path
     style="fill:none;stroke:#0486be;stroke-opacity:1"
     d="M 54.892,19.5 H 4.108 C 2.116,19.5 0.5,17.884 0.5,15.892 V 4.108 C 0.5,2.116 2.116,0.5 4.108,0.5 h 50.783 c 1.993,0 3.609,1.616 3.609,3.608 v 11.783 c 0,1.993 -1.616,3.609 -3.608,3.609 z"
     id="path15534" /><path
     style="fill:none;stroke:#0486be;stroke-opacity:1"
     d="M 54.892,38.5 H 4.108 C 2.116,38.5 0.5,36.884 0.5,34.892 V 23.108 C 0.5,21.116 2.116,19.5 4.108,19.5 h 50.783 c 1.993,0 3.608,1.616 3.608,3.608 V 34.891 C 58.5,36.884 56.884,38.5 54.892,38.5 Z"
     id="path15536" /><path
     style="fill:none;stroke:#0486be;stroke-opacity:1"
     d="M 54.892,57.5 H 4.108 C 2.116,57.5 0.5,55.884 0.5,53.892 V 42.108 C 0.5,40.116 2.116,38.5 4.108,38.5 h 50.783 c 1.993,0 3.608,1.616 3.608,3.608 V 53.891 C 58.5,55.884 56.884,57.5 54.892,57.5 Z"
     id="path15538" /><circle
     style="fill:#0486be;fill-opacity:1"
     cx="10"
     cy="10"
     r="3.5"
     id="circle15540" /><circle
     style="fill:#0486be;fill-opacity:1"
     cx="49.5"
     cy="8.5"
     r="1"
     id="circle15542" /><circle
     style="fill:#0486be;fill-opacity:1"
     cx="45.5"
     cy="8.5"
     r="1"
     id="circle15544" /><circle
     style="fill:#0486be;fill-opacity:1"
     cx="51.5"
     cy="11.5"
     r="1"
     id="circle15546" /><circle
     style="fill:#0486be;fill-opacity:1"
     cx="47.5"
     cy="11.5"
     r="1"
     id="circle15548" /><circle
     style="fill:#0486be;fill-opacity:1"
     cx="41.5"
     cy="8.5"
     r="1"
     id="circle15550" /><circle
     style="fill:#0486be;fill-opacity:1"
     cx="43.5"
     cy="11.5"
     r="1"
     id="circle15552" /><circle
     style="fill:#0486be;fill-opacity:1"
     cx="37.5"
     cy="8.5"
     r="1"
     id="circle15554" /><circle
     style="fill:#0486be;fill-opacity:1"
     cx="39.5"
     cy="11.5"
     r="1"
     id="circle15556" /><circle
     style="fill:#0486be;fill-opacity:1"
     cx="33.5"
     cy="8.5"
     r="1"
     id="circle15558" /><circle
     style="fill:#0486be;fill-opacity:1"
     cx="35.5"
     cy="11.5"
     r="1"
     id="circle15560" /><circle
     style="fill:#0486be;fill-opacity:1"
     cx="10"
     cy="29"
     r="3.5"
     id="circle15562" /><circle
     style="fill:#0486be;fill-opacity:1"
     cx="49.5"
     cy="27.5"
     r="1"
     id="circle15564" /><circle
     style="fill:#0486be;fill-opacity:1"
     cx="45.5"
     cy="27.5"
     r="1"
     id="circle15566" /><circle
     style="fill:#0486be;fill-opacity:1"
     cx="51.5"
     cy="30.5"
     r="1"
     id="circle15568" /><circle
     style="fill:#0486be;fill-opacity:1"
     cx="47.5"
     cy="30.5"
     r="1"
     id="circle15570" /><circle
     style="fill:#0486be;fill-opacity:1"
     cx="41.5"
     cy="27.5"
     r="1"
     id="circle15572" /><circle
     style="fill:#0486be;fill-opacity:1"
     cx="43.5"
     cy="30.5"
     r="1"
     id="circle15574" /><circle
     style="fill:#0486be;fill-opacity:1"
     cx="37.5"
     cy="27.5"
     r="1"
     id="circle15576" /><circle
     style="fill:#0486be;fill-opacity:1"
     cx="39.5"
     cy="30.5"
     r="1"
     id="circle15578" /><circle
     style="fill:#0486be;fill-opacity:1"
     cx="33.5"
     cy="27.5"
     r="1"
     id="circle15580" /><circle
     style="fill:#0486be;fill-opacity:1"
     cx="35.5"
     cy="30.5"
     r="1"
     id="circle15582" /><circle
     style="fill:#0486be;fill-opacity:1"
     cx="10"
     cy="48"
     r="3.5"
     id="circle15584" /><circle
     style="fill:#0486be;fill-opacity:1"
     cx="49.5"
     cy="46.5"
     r="1"
     id="circle15586" /><circle
     style="fill:#0486be;fill-opacity:1"
     cx="45.5"
     cy="46.5"
     r="1"
     id="circle15588" /><circle
     style="fill:#0486be;fill-opacity:1"
     cx="51.5"
     cy="49.5"
     r="1"
     id="circle15590" /><circle
     style="fill:#0486be;fill-opacity:1"
     cx="47.5"
     cy="49.5"
     r="1"
     id="circle15592" /><circle
     style="fill:#0486be;fill-opacity:1"
     cx="41.5"
     cy="46.5"
     r="1"
     id="circle15594" /><circle
     style="fill:#0486be;fill-opacity:1"
     cx="43.5"
     cy="49.5"
     r="1"
     id="circle15596" /><circle
     style="fill:#0486be;fill-opacity:1"
     cx="37.5"
     cy="46.5"
     r="1"
     id="circle15598" /><circle
     style="fill:#0486be;fill-opacity:1"
     cx="39.5"
     cy="49.5"
     r="1"
     id="circle15600" /><circle
     style="fill:#0486be;fill-opacity:1"
     cx="33.5"
     cy="46.5"
     r="1"
     id="circle15602" /><circle
     style="fill:#0486be;fill-opacity:1"
     cx="35.5"
     cy="49.5"
     r="1"
     id="circle15604" /><g
     id="g15606"
     transform="translate(0.5)">
</g><g
     id="g15608"
     transform="translate(0.5)">
</g><g
     id="g15610"
     transform="translate(0.5)">
</g><g
     id="g15612"
     transform="translate(0.5)">
</g><g
     id="g15614"
     transform="translate(0.5)">
</g><g
     id="g15616"
     transform="translate(0.5)">
</g><g
     id="g15618"
     transform="translate(0.5)">
</g><g
     id="g15620"
     transform="translate(0.5)">
</g><g
     id="g15622"
     transform="translate(0.5)">
</g><g
     id="g15624"
     transform="translate(0.5)">
</g><g
     id="g15626"
     transform="translate(0.5)">
</g><g
     id="g15628"
     transform="translate(0.5)">
</g><g
     id="g15630"
     transform="translate(0.5)">
</g><g
     id="g15632"
     transform="translate(0.5)">
</g><g
     id="g15634"
     transform="translate(0.5)">
</g></g>
</svg>
