<?xml version="1.0" encoding="UTF-8" standalone="no"?>
<!-- Generator: Adobe Illustrator 16.0.0, SVG Export Plug-In . SVG Version: 6.00 Build 0)  -->

<svg
   version="1.1"
   x="0px"
   y="0px"
   width="39.927471"
   height="32.577187"
   viewBox="0 0 39.927471 32.577187"
   xml:space="preserve"
   id="svg58318"
   sodipodi:docname="icon-vms.svg"
   inkscape:version="1.2.2 (1:1.2.2+202212051550+b0a8486541)"
   xmlns:inkscape="http://www.inkscape.org/namespaces/inkscape"
   xmlns:sodipodi="http://sodipodi.sourceforge.net/DTD/sodipodi-0.dtd"
   xmlns="http://www.w3.org/2000/svg"
   xmlns:svg="http://www.w3.org/2000/svg"><defs
   id="defs58322" /><sodipodi:namedview
   id="namedview58320"
   pagecolor="#ffffff"
   bordercolor="#000000"
   borderopacity="0.25"
   inkscape:showpageshadow="2"
   inkscape:pageopacity="0.0"
   inkscape:pagecheckerboard="0"
   inkscape:deskcolor="#d1d1d1"
   showgrid="false"
   inkscape:zoom="4.1384615"
   inkscape:cx="43.252788"
   inkscape:cy="11.719331"
   inkscape:window-width="1298"
   inkscape:window-height="704"
   inkscape:window-x="68"
   inkscape:window-y="27"
   inkscape:window-maximized="1"
   inkscape:current-layer="g58312" />
<g
   id="_x36_67_x2C__Internet_x2C__Monitor_x2C__Monitoring_x2C__Seo"
   transform="translate(-40,-125.50099)">
	<g
   id="g58314">
		<g
   id="g58312">
			
			
			
			
			
			
			
			
			
			
			
			
			
			
			
			
			
			
			
			
			
			
			
			
			
			
		<path
   id="path67330"
   style="fill:#0486be;fill-opacity:1;stroke-width:0.0907442"
   d="m 42.32995,125.50099 c -1.28675,0 -2.33008,1.04333 -2.33008,2.33008 v 24.37891 c 0,1.28675 1.04333,2.33008 2.33008,2.33008 h 11.28124 12.70508 11.28125 c 1.28675,0 2.33008,-1.04333 2.33008,-2.33008 v -10.72461 -13.6543 c 0,-1.28666 -1.04333,-2.33008 -2.33008,-2.33008 H 47.25963 Z m 0.39257,2.72266 h 34.48243 v 20.7793 H 42.72252 Z m 17.24024,22.68555 c 0.25046,0 0.47833,0.10138 0.64258,0.26562 0.16424,0.16434 0.26562,0.39221 0.26562,0.64258 0,0.25036 -0.10138,0.47638 -0.26562,0.64063 -0.16434,0.16425 -0.39221,0.26562 -0.64258,0.26562 -0.5009,0 -0.90625,-0.40535 -0.90625,-0.90625 0,-0.25046 0.10138,-0.47833 0.26562,-0.64258 0.16425,-0.16424 0.39018,-0.26562 0.64063,-0.26562 z" /><path
   style="fill:#0486be;fill-opacity:1;stroke-width:0.0907442"
   d="m 67.598956,154.98017 c 0.328494,0.3285 0.531762,0.78222 0.531762,1.28312 0,1.00273 -0.812162,1.81489 -1.814886,1.81489 H 53.611637 c -0.500908,0 -0.954629,-0.20327 -1.283123,-0.53176 -0.328494,-0.3285 -0.531762,-0.78222 -0.531762,-1.28313 0,-1.00272 0.812162,-1.81488 1.814885,-1.81488 h 12.704195 c 0.500909,0 0.95463,0.20327 1.283124,0.53176 z"
   id="path58260" /><rect
   x="42.722328"
   y="128.22333"
   style="opacity:0.15;fill:#006594;fill-opacity:1;stroke-width:0.0907442"
   width="34.482815"
   height="18.602571"
   id="rect58264" /><rect
   x="68.130714"
   y="140.92752"
   style="fill:#42a2cc;fill-opacity:1;stroke-width:0.0907442"
   width="5.4446549"
   height="3.62977"
   id="rect58270" /><rect
   x="60.871178"
   y="140.92752"
   style="fill:#42a2cc;fill-opacity:1;stroke-width:0.0907442"
   width="5.4446549"
   height="3.62977"
   id="rect58272" /><rect
   x="53.611637"
   y="140.92752"
   style="fill:#42a2cc;fill-opacity:1;stroke-width:0.0907442"
   width="5.4446549"
   height="3.62977"
   id="rect58274" /><rect
   x="46.352097"
   y="140.92752"
   style="fill:#42a2cc;fill-opacity:1;stroke-width:0.0907442"
   width="5.4446549"
   height="3.62977"
   id="rect58276" /><rect
   x="42.722328"
   y="146.73515"
   style="opacity:0.298239;fill:#006594;fill-opacity:1;stroke-width:0.0907442"
   width="34.482815"
   height="2.2686062"
   id="rect58278" /><path
   style="opacity:0.709393;fill:#0486be;fill-opacity:1;stroke-width:0.0907442"
   d="m 55.426523,136.84403 h -2.722328 c -0.250545,0 -0.453721,-0.20318 -0.453721,-0.45373 0,-0.25054 0.203176,-0.45372 0.453721,-0.45372 h 2.722328 c 0.250544,0 0.453721,0.20318 0.453721,0.45372 0,0.25055 -0.203177,0.45373 -0.453721,0.45373 z"
   id="path58294" /><path
   style="opacity:0.709393;fill:#0486be;fill-opacity:1;stroke-width:0.0907442"
   d="m 58.999487,136.39039 c -0.167877,0 -0.329221,-0.0935 -0.407896,-0.25444 -0.110073,-0.22514 -0.01697,-0.49683 0.208168,-0.6069 l 2.971874,-1.45372 c 0.224955,-0.11026 0.496915,-0.017 0.606897,0.20816 0.110164,0.22514 0.01697,0.49683 -0.208167,0.6069 l -2.971874,1.45373 c -0.06416,0.0315 -0.132124,0.0463 -0.199002,0.0463 z"
   id="path58296" /><path
   style="opacity:0.709393;fill:#0486be;fill-opacity:1;stroke-width:0.0907442"
   d="m 65.360749,133.70981 c -0.215608,0 -0.406806,-0.15427 -0.446098,-0.37396 -0.0441,-0.24664 0.120054,-0.48239 0.366697,-0.5265 l 2.769515,-0.49546 c 0.247005,-0.0444 0.482396,0.12006 0.526588,0.36679 0.04419,0.24673 -0.120054,0.4824 -0.366697,0.5265 l -2.769515,0.49546 c -0.02713,0.005 -0.05399,0.007 -0.08049,0.007 z"
   id="path58298" /><path
   style="fill:#0486be;fill-opacity:1;stroke-width:0.0907442"
   d="m 53.611637,130.49193 h -9.074425 c -0.250544,0 -0.453721,-0.20318 -0.453721,-0.45372 0,-0.25055 0.203177,-0.45372 0.453721,-0.45372 h 9.074425 c 0.250545,0 0.453722,0.20317 0.453722,0.45372 0,0.25054 -0.203177,0.45372 -0.453722,0.45372 z"
   id="path58300" /><path
   style="fill:#0486be;fill-opacity:1;stroke-width:0.0907442"
   d="m 53.611637,132.30681 h -9.074425 c -0.250544,0 -0.453721,-0.20317 -0.453721,-0.45372 0,-0.25054 0.203177,-0.45372 0.453721,-0.45372 h 9.074425 c 0.250545,0 0.453722,0.20318 0.453722,0.45372 0,0.25055 -0.203177,0.45372 -0.453722,0.45372 z"
   id="path58302" /><path
   style="fill:#0486be;fill-opacity:1;stroke-width:0.0907442"
   d="m 69.945603,130.94565 c 1.002723,0 1.814884,0.81216 1.814884,1.81488 0,1.00273 -0.812161,1.81489 -1.814884,1.81489 -1.002724,0 -1.814885,-0.81216 -1.814885,-1.81489 0,-1.00272 0.812161,-1.81488 1.814885,-1.81488 z"
   id="path58304" /><path
   style="fill:#0486be;fill-opacity:1;stroke-width:0.0907442"
   d="m 65.361203,133.256 c 0.03085,0.13248 0.04719,0.27042 0.04719,0.41198 0,1.00272 -0.812161,1.81488 -1.814885,1.81488 -1.002724,0 -1.814885,-0.81216 -1.814885,-1.81488 0,-1.00273 0.812161,-1.81489 1.814885,-1.81489 0.861163,0 1.581672,0.599 1.767698,1.40291 z"
   id="path58306" /><path
   style="fill:#0486be;fill-opacity:1;stroke-width:0.0907442"
   d="m 58.999124,135.93658 c 0.03721,0.14519 0.05717,0.29764 0.05717,0.45372 0,1.00273 -0.812161,1.81489 -1.814885,1.81489 -1.002723,0 -1.814884,-0.81216 -1.814884,-1.81489 0,-1.00272 0.812161,-1.81488 1.814884,-1.81488 0.845737,0 1.556264,0.57813 1.757717,1.36116 z"
   id="path58308" /><path
   style="fill:#0486be;fill-opacity:1;stroke-width:0.0907442"
   d="m 50.88931,134.57542 c 1.002724,0 1.814885,0.81216 1.814885,1.81488 0,1.00273 -0.812161,1.81489 -1.814885,1.81489 -1.002724,0 -1.814885,-0.81216 -1.814885,-1.81489 0,-1.00272 0.812161,-1.81488 1.814885,-1.81488 z"
   id="path58310" /><path
   style="opacity:0.15;fill:#006594;fill-opacity:1;stroke-width:0.0907442"
   d="m 60.605297,151.17526 c 0.164247,0.16434 0.265881,0.3912 0.265881,0.64157 0,0.25036 -0.101634,0.47731 -0.265881,0.64156 -0.164338,0.16425 -0.391199,0.26588 -0.641562,0.26588 -0.500908,0 -0.907443,-0.40654 -0.907443,-0.90744 0,-0.25046 0.101634,-0.47732 0.265881,-0.64157 0.164247,-0.16424 0.391108,-0.26588 0.641562,-0.26588 0.250454,0 0.477315,0.10164 0.641562,0.26588 z"
   id="path60982" /></g>
	</g>
</g>
<g
   id="Layer_1"
   transform="translate(-40,-125.50099)">
</g>
</svg>
