<?xml version="1.0" encoding="UTF-8" standalone="no"?>
<svg
   id="Layer_1"
   data-name="Layer 1"
   viewBox="0 0 40 28.696468"
   version="1.1"
   sodipodi:docname="icon-nms.svg"
   width="40"
   height="28.696468"
   inkscape:version="1.2.2 (1:1.2.2+202212051550+b0a8486541)"
   xmlns:inkscape="http://www.inkscape.org/namespaces/inkscape"
   xmlns:sodipodi="http://sodipodi.sourceforge.net/DTD/sodipodi-0.dtd"
   xmlns="http://www.w3.org/2000/svg"
   xmlns:svg="http://www.w3.org/2000/svg">
  <defs
     id="defs4097" />
  <sodipodi:namedview
     id="namedview4095"
     pagecolor="#ffffff"
     bordercolor="#000000"
     borderopacity="0.25"
     inkscape:showpageshadow="2"
     inkscape:pageopacity="0.0"
     inkscape:pagecheckerboard="0"
     inkscape:deskcolor="#d1d1d1"
     showgrid="false"
     inkscape:zoom="5.38"
     inkscape:cx="21.189591"
     inkscape:cy="12.918216"
     inkscape:window-width="1298"
     inkscape:window-height="704"
     inkscape:window-x="68"
     inkscape:window-y="27"
     inkscape:window-maximized="1"
     inkscape:current-layer="Layer_1" />
  <g
     id="g6918"
     transform="matrix(0.43654778,0,0,0.43654779,8.9583167,36.669696)"
     style="opacity:0.15;fill:#006594;fill-opacity:1"
     inkscape:export-filename="../../../run/user/1000/gvfs/smb-share:port=121,server=139.255.244.20,share=thulihsan/thulihsan/assets/images/nms.png"
     inkscape:export-xdpi="96"
     inkscape:export-ydpi="96">
    <path
       d="m 65.330184,-33.764271 h -0.477 V -77.86927 a 6.137,6.137 0 0 0 -6.13,-6.13 H -8.1368158 a 6.137,6.137 0 0 0 -6.1300002,6.13 v 44.099999 h -0.477 a 5.784,5.784 0 0 0 -5.777,5.779 9.737,9.737 0 0 0 9.726,9.726 h 72.176 a 9.737,9.737 0 0 0 9.726,-9.726 5.784,5.784 0 0 0 -5.777,-5.774 z m -76.6,-44.099999 a 3.133,3.133 0 0 1 3.1300002,-3.13 H 58.723184 a 3.133,3.133 0 0 1 3.13,3.13 v 44.099999 h -73.12 z m 72.651,56.604999 h -72.176 a 6.733,6.733 0 0 1 -6.726,-6.726 2.781,2.781 0 0 1 2.777,-2.779 h 1.929 c 0.016,0 0.031,0.005 0.048,0.005 h 76.12 c 0.017,0 0.032,0 0.048,-0.005 h 1.929 a 2.781,2.781 0 0 1 2.777,2.779 6.733,6.733 0 0 1 -6.726,6.726 z"
       id="path4070-5"
       style="fill:#006594;fill-opacity:1" />
    <path
       style="fill:#006594;fill-opacity:1;stroke-width:1.70691"
       d="m -12.301789,-55.894917 v -23.605596 l 0.946086,-0.956983 0.946084,-0.956985 H 25.27881 60.96724 l 0.946082,0.956985 0.946088,0.956983 v 23.605596 23.605596 h -37.5806 -37.580599 z"
       id="path6911" />
    <path
       style="fill:#006594;fill-opacity:1;stroke-width:1.86998"
       d="m -15.441465,-20.481468 c -1.798697,-0.908499 -2.691002,-1.889635 -3.595573,-3.953519 -1.090476,-2.488046 -0.981671,-4.661765 0.291729,-5.828184 1.034689,-0.947762 1.131074,-0.949842 44.024959,-0.949842 h 42.987999 l 1.080963,0.990146 c 0.971267,0.88967 1.062548,1.21325 0.899546,3.188705 -0.227273,2.754323 -1.768553,5.225183 -3.993217,6.401623 -1.547868,0.818536 -3.370038,0.856281 -40.975291,0.848757 -34.1653758,-0.0068 -39.535493,-0.09884 -40.721115,-0.697686 z"
       id="path6913" />
  </g>
  <path
     d="m 12.419348,17.603353 h 3.319946 a 0.65482167,0.65482168 0 0 0 0.654821,-0.654822 V 10.554416 A 0.65482167,0.65482168 0 0 0 15.739294,9.8995943 h -3.319946 a 0.65482167,0.65482168 0 0 0 -0.654822,0.6548217 v 6.394115 a 0.65482167,0.65482168 0 0 0 0.654822,0.654822 z m 0.654821,-6.394115 h 2.010303 v 5.084472 h -2.010303 z"
     id="path4064"
     style="fill:#0486be;fill-opacity:1;stroke-width:0.436548" />
  <path
     d="m 18.137251,17.603353 h 3.320382 a 0.65482167,0.65482168 0 0 0 0.654822,-0.654822 V 8.8322349 A 0.65482167,0.65482168 0 0 0 21.457633,8.1774132 h -3.320382 a 0.65482167,0.65482168 0 0 0 -0.654822,0.6548217 v 8.1162961 a 0.65482167,0.65482168 0 0 0 0.654822,0.654822 z m 0.654821,-8.1162964 h 2.010739 V 16.29371 h -2.010739 z"
     id="path4066"
     style="fill:#0486be;fill-opacity:1;stroke-width:0.436548" />
  <path
     d="m 23.85559,17.603353 h 3.320382 a 0.65482167,0.65482168 0 0 0 0.654822,-0.654822 V 6.8642775 A 0.65482167,0.65482168 0 0 0 27.175972,6.2094558 H 23.85559 A 0.65482167,0.65482168 0 0 0 23.200768,6.8642775 V 16.948531 a 0.65482167,0.65482168 0 0 0 0.654822,0.654822 z M 24.510412,7.5190992 h 2.010739 V 16.29371 h -2.010739 z"
     id="path4068"
     style="fill:#0486be;fill-opacity:1;stroke-width:0.436548" />
  <path
     d="M 37.478063,21.929978 H 37.26983 V 2.676038 A 2.6790937,2.6790938 0 0 0 34.593792,4.27e-8 H 5.4062077 A 2.6790937,2.6790938 0 0 0 2.7301698,2.676038 V 21.927796 H 2.5219365 A 2.5249924,2.5249924 0 0 0 0,24.450605 4.2506657,4.2506658 0 0 0 4.2458637,28.696469 H 35.754136 A 4.2506657,4.2506658 0 0 0 40,24.450605 2.5249924,2.5249924 0 0 0 37.478063,21.929978 Z M 4.0385035,2.6782207 A 1.3677042,1.3677042 0 0 1 5.4048981,1.3118262 H 34.593792 a 1.3677042,1.3677042 0 0 1 1.366395,1.3663945 V 21.929978 H 4.0398132 Z M 35.754136,27.389008 H 4.2458637 a 2.9392762,2.9392763 0 0 1 -2.9362204,-2.93622 1.2140394,1.2140394 0 0 1 1.2122932,-1.213166 h 0.8421007 c 0.00698,0 0.013533,0.0022 0.020954,0.0022 H 36.615009 c 0.0074,0 0.01397,0 0.02095,-0.0022 h 0.8421 a 1.2140394,1.2140394 0 0 1 1.212294,1.213166 2.9392762,2.9392763 0 0 1 -2.936221,2.93622 z"
     id="path4070"
     style="fill:#0486be;fill-opacity:1;stroke-width:0.436548" />
  <path
     d="M 34.054219,2.9056621 H 5.9457808 A 0.65482167,0.65482168 0 0 0 5.2909591,3.5604838 V 20.253198 A 0.65482167,0.65482168 0 0 0 5.9457808,20.90802 H 34.054219 a 0.65482167,0.65482168 0 0 0 0.654822,-0.654822 V 3.5604838 A 0.65482167,0.65482168 0 0 0 34.054219,2.9056621 Z M 33.399398,19.598377 H 6.6006024 V 4.2153055 H 33.399398 Z"
     id="path4072"
     style="fill:#0486be;fill-opacity:1;stroke-width:0.436548" />
  <path
     d="m 35.033832,24.048981 a 0.65482167,0.65482168 0 0 0 -0.654821,0.654822 v 1.063867 a 0.65482167,0.65482168 0 0 0 1.309643,0 v -1.063867 a 0.65482167,0.65482168 0 0 0 -0.654822,-0.654822 z"
     id="path4074"
     style="fill:#0486be;fill-opacity:1;stroke-width:0.436548" />
  <path
     d="m 32.905225,24.048981 a 0.65482167,0.65482168 0 0 0 -0.654821,0.654822 v 1.063867 a 0.65482167,0.65482168 0 0 0 1.309643,0 v -1.063867 a 0.65482167,0.65482168 0 0 0 -0.654822,-0.654822 z"
     id="path4076"
     style="fill:#0486be;fill-opacity:1;stroke-width:0.436548" />
  <path
     d="m 30.777492,24.048981 a 0.65482167,0.65482168 0 0 0 -0.654822,0.654822 v 1.063867 a 0.65482167,0.65482168 0 0 0 1.309643,0 v -1.063867 a 0.65482167,0.65482168 0 0 0 -0.654821,-0.654822 z"
     id="path4078"
     style="fill:#0486be;fill-opacity:1;stroke-width:0.436548" />
  <path
     d="m 28.648885,24.048981 a 0.65482167,0.65482168 0 0 0 -0.654822,0.654822 v 1.063867 a 0.65482167,0.65482168 0 0 0 1.309643,0 v -1.063867 a 0.65482167,0.65482168 0 0 0 -0.654821,-0.654822 z"
     id="path4080"
     style="fill:#0486be;fill-opacity:1;stroke-width:0.436548" />
  <path
     d="m 26.521151,24.048981 a 0.65482167,0.65482168 0 0 0 -0.654822,0.654822 v 1.063867 a 0.65482167,0.65482168 0 0 0 1.309643,0 v -1.063867 a 0.65482167,0.65482168 0 0 0 -0.654821,-0.654822 z"
     id="path4082"
     style="fill:#0486be;fill-opacity:1;stroke-width:0.436548" />
  <path
     d="m 4.9661676,24.048981 a 0.65482167,0.65482168 0 0 0 -0.6548217,0.654822 v 1.063867 a 0.65482167,0.65482168 0 0 0 1.3096433,0 V 24.703803 A 0.65482167,0.65482168 0 0 0 4.9661676,24.048981 Z"
     id="path4084"
     style="fill:#0486be;fill-opacity:1;stroke-width:0.436548" />
  <path
     d="m 7.0947745,24.048981 a 0.65482167,0.65482168 0 0 0 -0.6548216,0.654822 v 1.063867 a 0.65482167,0.65482168 0 0 0 1.3096433,0 V 24.703803 A 0.65482167,0.65482168 0 0 0 7.0947745,24.048981 Z"
     id="path4086"
     style="fill:#0486be;fill-opacity:1;stroke-width:0.436548" />
  <path
     d="m 9.2225084,24.048981 a 0.65482167,0.65482168 0 0 0 -0.6548217,0.654822 v 1.063867 a 0.6548217,0.65482171 0 0 0 1.3096434,0 V 24.703803 A 0.65482167,0.65482168 0 0 0 9.2225084,24.048981 Z"
     id="path4088"
     style="fill:#0486be;fill-opacity:1;stroke-width:0.436548" />
  <path
     d="m 11.351115,24.048981 a 0.65482167,0.65482168 0 0 0 -0.654821,0.654822 v 1.063867 a 0.65482167,0.65482168 0 0 0 1.309643,0 v -1.063867 a 0.65482167,0.65482168 0 0 0 -0.654822,-0.654822 z"
     id="path4090"
     style="fill:#0486be;fill-opacity:1;stroke-width:0.436548" />
  <path
     d="m 13.478849,24.048981 a 0.65482167,0.65482168 0 0 0 -0.654821,0.654822 v 1.063867 a 0.65482167,0.65482168 0 0 0 1.309643,0 v -1.063867 a 0.65482167,0.65482168 0 0 0 -0.654822,-0.654822 z"
     id="path4092"
     style="fill:#0486be;fill-opacity:1;stroke-width:0.436548" />
</svg>
