<?xml version="1.0" encoding="UTF-8" standalone="no"?>
<!-- Created with Inkscape (http://www.inkscape.org/) -->

<svg
   width="29.768856mm"
   height="8.287981mm"
   viewBox="0 0 29.768856 8.2879808"
   version="1.1"
   id="svg13248"
   inkscape:version="1.1.2 (0a00cf5339, 2022-02-04)"
   sodipodi:docname="logo-ansible.svg"
   xmlns:inkscape="http://www.inkscape.org/namespaces/inkscape"
   xmlns:sodipodi="http://sodipodi.sourceforge.net/DTD/sodipodi-0.dtd"
   xmlns="http://www.w3.org/2000/svg"
   xmlns:svg="http://www.w3.org/2000/svg">
  <sodipodi:namedview
     id="namedview13250"
     pagecolor="#ffffff"
     bordercolor="#000000"
     borderopacity="0.25"
     inkscape:pageshadow="2"
     inkscape:pageopacity="0.0"
     inkscape:pagecheckerboard="0"
     inkscape:document-units="mm"
     showgrid="false"
     inkscape:zoom="3.3496072"
     inkscape:cx="34.780198"
     inkscape:cy="25.823924"
     inkscape:window-width="1366"
     inkscape:window-height="704"
     inkscape:window-x="0"
     inkscape:window-y="0"
     inkscape:window-maximized="1"
     inkscape:current-layer="layer1" />
  <defs
     id="defs13245" />
  <g
     inkscape:label="Layer 1"
     inkscape:groupmode="layer"
     id="layer1"
     transform="translate(93.053558,-88.729149)">
    <g
       id="g995"
       transform="matrix(0.07842272,0,0,0.07842272,-108.0109,82.163144)"
       style="font-style:normal;font-weight:normal;font-size:73.3727px;line-height:1.25;font-family:sans-serif;letter-spacing:0px;word-spacing:0px;fill:#00188f;fill-opacity:1;stroke:none;stroke-width:1.83432">
      <g
         id="g1238">
        <g
           fill="#1a1918"
           transform="matrix(1.1717731,0,0,1.1717731,285.13163,111.16094)"
           id="g973"
           style="fill:#0486be;fill-opacity:1">
          <path
             d="m 88.040978,37.113762 c -0.54152,0 -1.12617,-0.13685 -1.53212,-0.68583 l -17.3835,-22.8612 v 23.3187 h -3.96431 V 8.1712323 c 0,-1.14253 0.94592,-2.0571 2.0278,-2.0571 0.62971,0 1.17084,0.1826 1.57485,0.73158 l 17.3396,22.8158997 V 6.4340123 h 3.96392 V 35.102112 c 0,1.18907 -0.94592,2.01175 -2.02625,2.01175"
             id="path959"
             style="fill:#0486be;fill-opacity:1" />
          <path
             d="m 113.55154,37.388262 c -3.96276,0 -8.10693,-0.82347 -11.9803,-2.28584 l 0.94631,-3.2927 c 3.55797,1.14332 7.43099,1.96639 11.034,1.96639 4.99957,0 7.61162,-1.7834 7.61162,-4.29759 0,-2.28663 -2.02741,-3.42956 -9.00816,-6.72187 -6.98076,-3.29192 -9.72722,-5.39477 -9.72722,-9.51055 0,-5.1656297 3.96276,-7.2700597 11.4384,-7.2700597 3.10813,0 7.88161,0.64087 10.62999,1.46395 l -0.63087,3.3830197 c -3.01839,-0.73119 -6.8005,-1.2340197 -9.90863,-1.2340197 -5.26839,0 -7.4306,1.0052797 -7.4306,3.5206597 0,2.46844 1.57562,3.52026 8.96194,6.94982 7.79187,3.61216 9.77344,5.4413 9.77344,9.18992 0,5.4417 -5.13515,8.13888 -11.70999,8.13888"
             id="path961"
             style="fill:#0486be;fill-opacity:1" />
          <path
             d="m 136.76553,6.4339323 h 4.09833 V 36.885032 h -4.09833 z"
             id="path963"
             style="fill:#0486be;fill-opacity:1" />
          <path
             d="m 166.64564,23.077162 h -10.1798 v 10.334 h 10.1798 c 3.46746,0 5.58422,-2.19514 5.58422,-5.2591 0,-2.88057 -2.2065,-5.07492 -5.58422,-5.07492 M 164.6629,9.9086423 h -8.19705 v 9.7392897 h 8.19705 c 3.28838,0 5.67512,-2.10364 5.67512,-5.02957 0,-2.88057 -2.07208,-4.7097197 -5.67512,-4.7097197 m 2.02741,26.9765997 h -12.2499 c -1.17162,0 -2.07247,-0.91497 -2.07247,-2.0575 V 8.4916423 c 0,-1.09796 0.90086,-2.0575 2.07247,-2.0575 h 10.1332 c 6.21509,0 9.90786,3.06317 9.90786,7.8643897 0,2.60569 -1.53134,5.02917 -3.8738,6.44659 3.4694,1.05182 5.80992,3.932 5.80992,7.40691 0,4.84657 -4.00743,8.73322 -9.72722,8.73322"
             id="path965"
             style="fill:#0486be;fill-opacity:1" />
          <path
             d="m 189.9471,36.885362 c -1.12422,0 -2.02547,-0.96032 -2.02547,-2.0575 V 6.4342623 h 4.09755 V 33.182162 h 16.304 v 3.70326 h -18.3761 z"
             id="path967"
             style="fill:#0486be;fill-opacity:1" />
          <path
             d="m 233.24874,37.388262 c -8.3773,0 -13.4215,-3.10892 -13.4215,-9.37291 0,-2.97207 1.66691,-5.8069 4.90984,-7.13281 -2.61244,-1.64616 -3.96314,-3.97814 -3.96314,-6.53848 0,-5.6692597 4.36987,-8.3680197 12.5658,-8.3680197 2.74763,0 6.62026,0.32063 9.86358,1.05261 l -0.45101,3.3830197 c -3.42201,-0.5489797 -6.62104,-0.8680397 -9.72839,-0.8680397 -5.31462,0 -8.15238,1.4623697 -8.15238,4.9834297 0,2.78947 2.61283,4.98382 6.08146,4.98382 h 7.02504 c 0.99098,0 1.75626,0.77733 1.75626,1.73726 0,1.00568 -0.76528,1.78301 -1.75626,1.78301 h -7.56501 c -3.9647,0 -6.48546,1.96561 -6.48546,4.98421 0,4.43484 4.09833,5.76075 9.23232,5.76075 2.79269,0 6.57442,-0.3648 9.63671,-1.09678 l 0.58697,3.33727 c -2.92827,0.82347 -6.757,1.37166 -10.1347,1.37166"
             id="path969"
             style="fill:#0486be;fill-opacity:1" />
          <path
             d="m 40.716552,12.144962 7.17771,17.9843 -10.8406,-8.66933 3.66286,-9.31493 z m 12.7514,22.1277 -11.0399,-26.9745997 c -0.31505,-0.77733 -0.94592,-1.18907 -1.71159,-1.18907 -0.76567,0 -1.44121,0.41174 -1.75626,1.18907 l -12.1179,29.5873997 h 4.14456 l 4.79757,-12.1983 14.3142,11.7408 c 0.57571,0.47208 0.99098,0.68583 1.53212,0.68583 1.08033,0 2.02625,-0.82268 2.02625,-2.01135 0,-0.19285 -0.06798,-0.49968 -0.18918,-0.82978 z"
             id="path971"
             style="fill:#0486be;fill-opacity:1" />
        </g>
        <g
           id="g1225"
           transform="matrix(0.41423197,0,0,0.41423197,190.41772,83.600699)">
          <path
             d="m 255.879,127.868 c 0,70.4551 -57.1101,127.565 -127.566,127.565 C 57.8629,255.433 0.747,198.3234 0.747,127.868 0.747,57.4179 57.8631,0.302 128.313,0.302 c 70.4561,0 127.566,57.1161 127.566,127.566"
             fill="#1a1918"
             id="path975"
             style="fill:#0486be;fill-opacity:1" />
          <path
             d="M 130.46,78.2289 163.4716,159.7052 113.6081,120.4274 130.46,78.229 Z m 58.6445,100.245 -50.7786,-122.202 c -1.44952,-3.52436 -4.34807,-5.38926 -7.86591,-5.38926 -3.52436,0 -6.63386,1.86489 -8.08339,5.38926 l -55.7329,134.04 H 85.709 l 22.0623,-55.2653 65.8389,53.1899 c 2.64792,2.14114 4.55852,3.1095 7.0422,3.1095 4.97389,0 9.32146,-3.72878 9.32146,-9.11101 0,-0.87594 -0.30939,-2.2662 -0.86941,-3.76143 z"
             fill="#ffffff"
             id="path977" />
        </g>
      </g>
    </g>
  </g>
</svg>
