<?xml version="1.0" encoding="UTF-8" standalone="no"?>
<svg
   version="1.1"
   id="Layer_1"
   x="0px"
   y="0px"
   viewBox="0 0 170 60"
   overflow="visible"
   xml:space="preserve"
   sodipodi:docname="logo-mtcre.svg"
   width="170"
   height="60"
   inkscape:version="1.2.2 (1:1.2.2+202212051550+b0a8486541)"
   xmlns:inkscape="http://www.inkscape.org/namespaces/inkscape"
   xmlns:sodipodi="http://sodipodi.sourceforge.net/DTD/sodipodi-0.dtd"
   xmlns="http://www.w3.org/2000/svg"
   xmlns:svg="http://www.w3.org/2000/svg"><defs
   id="defs67403" /><sodipodi:namedview
   id="namedview67401"
   pagecolor="#ffffff"
   bordercolor="#000000"
   borderopacity="0.25"
   inkscape:showpageshadow="2"
   inkscape:pageopacity="0.0"
   inkscape:pagecheckerboard="0"
   inkscape:deskcolor="#d1d1d1"
   showgrid="false"
   inkscape:zoom="2.8284271"
   inkscape:cx="81.140503"
   inkscape:cy="26.693281"
   inkscape:window-width="1298"
   inkscape:window-height="704"
   inkscape:window-x="68"
   inkscape:window-y="27"
   inkscape:window-maximized="1"
   inkscape:current-layer="g74108" />

<path
   fill="#293239"
   d="m 52.768069,21.772851 c -0.04028,-0.0946 -0.08239,-0.185412 -0.129993,-0.266765 -0.0476,-0.08135 -0.10436,-0.162708 -0.168441,-0.24217 -0.331389,-0.420013 -0.871499,-0.832459 -1.561741,-1.224093 l -5.553059,-3.144422 -5.553059,-3.148206 c -0.690242,-0.391634 -1.323726,-0.643263 -1.860174,-0.715158 -0.10253,-0.01324 -0.203228,-0.02081 -0.298434,-0.02081 -0.593205,0 -1.336543,0.270549 -2.160438,0.735969 l -5.55306,3.146314 -5.55306,3.144423 c -0.690241,0.391634 -1.230351,0.802187 -1.56174,1.224092 -0.06408,0.08135 -0.120839,0.162708 -0.168441,0.24217 -0.0476,0.08135 -0.08971,0.172167 -0.129993,0.266765 -0.205059,0.493799 -0.300264,1.155982 -0.300264,1.937358 V 36.28979 c 0,0.932732 0.133654,1.698972 0.430257,2.204123 0.296602,0.505151 0.906285,1.000842 1.730181,1.466262 l 5.55306,3.146314 5.55306,3.144422 c 0.690241,0.389743 1.323726,0.643264 1.860174,0.715158 0.102529,0.01324 0.203227,0.02271 0.298433,0.02271 0.09521,0 0.195904,-0.0076 0.298434,-0.02271 0.536447,-0.07189 1.169932,-0.323524 1.860174,-0.715158 l 11.106119,-6.290736 c 0.822065,-0.46542 1.433579,-0.961111 1.730181,-1.466262 0.0476,-0.08135 0.08971,-0.172168 0.129993,-0.266765 0.205059,-0.491907 0.300264,-1.155982 0.300264,-1.937358 V 23.708317 c 0.0018,-0.781376 -0.09338,-1.443559 -0.298433,-1.935466 z M 31.110588,36.533852 c 0,0.285684 -0.296603,0.469203 -0.54011,0.331091 l -1.986505,-1.125711 c -0.466875,-0.264873 -0.757984,-0.771916 -0.757984,-1.322473 v -6.080731 c 0,-0.285684 0.296602,-0.467312 0.540109,-0.331091 l 2.367328,1.339501 c 0.234353,0.132437 0.378992,0.385958 0.378992,0.662183 v 6.527231 z m 16.347928,-2.117093 c 0,0.550557 -0.29111,1.059492 -0.757984,1.324365 l -1.986505,1.123819 c -0.243507,0.138112 -0.54011,-0.04352 -0.54011,-0.331091 v -8.055928 c 0,-0.285684 -0.296602,-0.469203 -0.54011,-0.331091 l -3.588524,2.031956 c -0.466875,0.264873 -0.757985,0.771916 -0.757985,1.322473 v 7.991601 c 0,0.276225 -0.144639,0.529746 -0.378992,0.662183 l -0.563911,0.317847 c -0.43758,0.247846 -0.966705,0.247846 -1.404285,0 l -0.56025,-0.317847 c -0.234352,-0.132437 -0.378991,-0.385958 -0.378991,-0.662183 v -7.989709 c 0,-0.550558 -0.29111,-1.057601 -0.757985,-1.322473 L 27.825989,25.98055 v -0.39731 c 0,-0.550558 0.291109,-1.057601 0.757984,-1.322474 l 0.818403,-0.46542 c 0.437581,-0.247845 0.966705,-0.247845 1.402455,0 l 6.135279,3.473622 c 0.43758,0.247845 0.966705,0.247845 1.402454,0 l 2.834202,-1.606266 c 0.252662,-0.143788 0.252662,-0.518395 0,-0.662183 l -6.367801,-3.606058 c -0.252661,-0.143789 -0.252661,-0.518395 0,-0.662184 l 2.131145,-1.207064 c 0.43758,-0.247846 0.966705,-0.247846 1.404285,0 l 8.356137,4.731769 c 0.468705,0.264874 0.759815,0.771916 0.759815,1.324366 v 8.835411 z"
   id="path72246"
   sodipodi:nodetypes="cscccccsccccccsssccccscccccscccccssccscccccssccssccccssccsccccccccccccscc"
   style="fill:#0486be;fill-opacity:1;stroke-width:0.186116" /><rect
   style="fill:#ffffff;fill-opacity:0;stroke:none;stroke-width:4.03783;stroke-linecap:round;stroke-linejoin:round"
   id="rect72516"
   width="170"
   height="60"
   x="0"
   y="0" /><g
   id="g74180"
   transform="translate(0,5.6832397)"><text
     xml:space="preserve"
     style="font-style:normal;font-variant:normal;font-weight:bold;font-stretch:normal;font-size:23.9023px;font-family:sans-serif;-inkscape-font-specification:'sans-serif, Bold';font-variant-ligatures:normal;font-variant-caps:normal;font-variant-numeric:normal;font-variant-east-asian:normal;fill:#0486be;fill-opacity:1;stroke:none;stroke-width:0.62668;stroke-linecap:round;stroke-linejoin:round"
     x="59.614365"
     y="38.212605"
     id="text72250"
     transform="scale(0.98372799,1.0165412)"><tspan
       sodipodi:role="line"
       id="tspan72248"
       x="59.614365"
       y="38.212605"
       style="font-style:normal;font-variant:normal;font-weight:bold;font-stretch:normal;font-size:23.9023px;font-family:sans-serif;-inkscape-font-specification:'sans-serif, Bold';font-variant-ligatures:normal;font-variant-caps:normal;font-variant-numeric:normal;font-variant-east-asian:normal;fill:#0486be;fill-opacity:1;stroke-width:0.62668">MTCRE</tspan></text><g
     id="g74108"
     transform="matrix(0.54387525,0,0,0.56201672,22.152309,9.5020946)"><text
       xml:space="preserve"
       style="font-style:normal;font-variant:normal;font-weight:bold;font-stretch:normal;font-size:19.72px;font-family:sans-serif;-inkscape-font-specification:'sans-serif, Bold';font-variant-ligatures:normal;font-variant-caps:normal;font-variant-numeric:normal;font-variant-east-asian:normal;letter-spacing:3.61747659px;fill:#0486be;fill-opacity:1;stroke:none;stroke-width:0.517024;stroke-linecap:round;stroke-linejoin:round"
       x="69.254707"
       y="14.533958"
       id="text74084"><tspan
         sodipodi:role="line"
         id="tspan74082"
         x="69.254707"
         y="14.533958"
         style="font-style:normal;font-variant:normal;font-weight:bold;font-stretch:normal;font-size:19.72px;font-family:sans-serif;-inkscape-font-specification:'sans-serif, Bold';font-variant-ligatures:normal;font-variant-caps:normal;font-variant-numeric:normal;font-variant-east-asian:normal;fill:#0486be;fill-opacity:1;stroke-width:0.517024">MIKROTIK</tspan></text></g></g></svg>
