<?xml version="1.0" encoding="UTF-8" standalone="no"?>
<svg
   version="1.1"
   id="Layer_1"
   x="0px"
   y="0px"
   viewBox="0 0 170.00001 60"
   overflow="visible"
   xml:space="preserve"
   sodipodi:docname="logo-mtcna.svg"
   width="170"
   height="60"
   inkscape:version="1.2.2 (1:1.2.2+202212051550+b0a8486541)"
   xmlns:inkscape="http://www.inkscape.org/namespaces/inkscape"
   xmlns:sodipodi="http://sodipodi.sourceforge.net/DTD/sodipodi-0.dtd"
   xmlns="http://www.w3.org/2000/svg"
   xmlns:svg="http://www.w3.org/2000/svg"><defs
   id="defs67403" /><sodipodi:namedview
   id="namedview67401"
   pagecolor="#ffffff"
   bordercolor="#000000"
   borderopacity="0.25"
   inkscape:showpageshadow="2"
   inkscape:pageopacity="0.0"
   inkscape:pagecheckerboard="0"
   inkscape:deskcolor="#d1d1d1"
   showgrid="false"
   inkscape:zoom="2.8284271"
   inkscape:cx="103.06081"
   inkscape:cy="53.916892"
   inkscape:window-width="1298"
   inkscape:window-height="704"
   inkscape:window-x="68"
   inkscape:window-y="27"
   inkscape:window-maximized="1"
   inkscape:current-layer="g74108" />

<g
   id="g72244"
   transform="matrix(0.54387525,0,0,0.56201672,19.494422,13.011226)"
   inkscape:export-filename="../../../run/user/1000/gvfs/smb-share:port=121,server=139.255.244.20,share=thulihsan/thulihsan/assets/images/logo-mtcre.png"
   inkscape:export-xdpi="96"
   inkscape:export-ydpi="96"><path
     fill="#293239"
     d="m 56.291881,15.589616 c -0.07406,-0.168318 -0.151486,-0.329904 -0.239012,-0.474657 -0.08752,-0.144754 -0.191882,-0.289507 -0.309705,-0.430894 -0.609311,-0.747332 -1.602388,-1.481199 -2.871506,-2.178036 L 42.661487,6.9111382 32.451316,1.3095143 C 31.182198,0.61267762 30.017438,0.16495167 29.031094,0.03702997 28.842578,0.01346544 28.657428,0 28.482377,0 27.391676,0 26.024934,0.48138956 24.510072,1.3095143 L 14.2999,6.9077718 4.0897287,12.502663 C 2.820611,13.1995 1.8275346,13.93 1.2182233,14.680698 1.1004007,14.825452 0.99604354,14.970205 0.90851817,15.111593 0.8209928,15.256346 0.7435665,15.417931 0.66950657,15.586249 0.29247416,16.464869 0.11742341,17.643096 0.11742341,19.033403 V 41.4197 c 0,1.659616 0.24574432,3.022992 0.79109476,3.92181 0.54535043,0.898819 1.66634843,1.780805 3.18121053,2.60893 L 14.2999,53.548697 24.510072,59.143588 c 1.269118,0.693471 2.433878,1.144563 3.420222,1.272485 0.188516,0.02356 0.373666,0.0404 0.548717,0.0404 0.175051,0 0.3602,-0.01346 0.548717,-0.0404 0.986343,-0.127922 2.151104,-0.575648 3.420222,-1.272485 L 52.868292,47.95044 c 1.511496,-0.828125 2.63586,-1.710111 3.181211,-2.60893 0.08752,-0.144753 0.164951,-0.306339 0.239011,-0.474657 0.377033,-0.875253 0.552084,-2.056846 0.552084,-3.447153 V 19.033403 c 0.0034,-1.390307 -0.171685,-2.568534 -0.548717,-3.443787 z M 16.471203,41.853961 c 0,0.50832 -0.545351,0.834857 -0.993077,0.589113 l -3.652501,-2.002985 c -0.858422,-0.47129 -1.393673,-1.373475 -1.393673,-2.353086 V 27.26752 c 0,-0.50832 0.54535,-0.831491 0.993076,-0.589113 l 4.352705,2.383384 c 0.430894,0.235645 0.696836,0.686737 0.696836,1.178226 v 11.613944 z m 30.058232,-3.766958 c 0,0.979611 -0.535251,1.885162 -1.393673,2.356453 l -3.652501,1.999618 c -0.447726,0.245744 -0.993077,-0.07743 -0.993077,-0.589113 V 27.519997 c 0,-0.50832 -0.54535,-0.834857 -0.993076,-0.589113 l -6.598066,3.615472 c -0.858422,0.47129 -1.393673,1.373475 -1.393673,2.353086 v 14.219507 c 0,0.491488 -0.265942,0.942581 -0.696837,1.178226 l -1.036839,0.565548 c -0.80456,0.440994 -1.777438,0.440994 -2.581998,0 L 26.159588,48.297175 C 25.728694,48.06153 25.462752,47.610437 25.462752,47.118949 V 32.902808 c 0,-0.979611 -0.535251,-1.881796 -1.393673,-2.353086 l -13.637127,-7.47332 v -0.706936 c 0,-0.979611 0.535251,-1.881796 1.393673,-2.353086 l 1.504763,-0.828125 c 0.804561,-0.440993 1.777439,-0.440993 2.578633,0 l 11.280674,6.180638 c 0.80456,0.440993 1.777438,0.440993 2.578632,0 l 5.211125,-2.85804 c 0.464558,-0.255843 0.464558,-0.922383 0,-1.178226 L 23.271251,14.916344 c -0.464558,-0.255844 -0.464558,-0.922383 0,-1.178227 l 3.918444,-2.147738 c 0.80456,-0.440993 1.777438,-0.440993 2.581998,0 l 15.364069,8.419268 c 0.861788,0.471291 1.39704,1.373475 1.39704,2.356452 v 15.720904 z"
     id="path72238"
     sodipodi:nodetypes="cscccccsccccccsssccccscccccscccccssccscccccssccssccccssccsccccccccccccscc"
     style="fill:#0486be;fill-opacity:1;stroke-width:0.336636" /><g
     id="g74108"
     transform="translate(0,3.8684002)"><text
       xml:space="preserve"
       style="font-style:normal;font-variant:normal;font-weight:bold;font-stretch:normal;font-size:43.233px;font-family:sans-serif;-inkscape-font-specification:'sans-serif, Bold';font-variant-ligatures:normal;font-variant-caps:normal;font-variant-numeric:normal;font-variant-east-asian:normal;fill:#0486be;fill-opacity:1;stroke:none;stroke-width:1.1335;stroke-linecap:round;stroke-linejoin:round"
       x="67.096291"
       y="52.209465"
       id="text72242"><tspan
         sodipodi:role="line"
         id="tspan72240"
         x="67.096291"
         y="52.209465"
         style="font-style:normal;font-variant:normal;font-weight:bold;font-stretch:normal;font-size:43.233px;font-family:sans-serif;-inkscape-font-specification:'sans-serif, Bold';font-variant-ligatures:normal;font-variant-caps:normal;font-variant-numeric:normal;font-variant-east-asian:normal;fill:#0486be;fill-opacity:1;stroke-width:1.1335">MTCNA</tspan></text><text
       xml:space="preserve"
       style="font-style:normal;font-variant:normal;font-weight:bold;font-stretch:normal;font-size:19.72px;font-family:sans-serif;-inkscape-font-specification:'sans-serif, Bold';font-variant-ligatures:normal;font-variant-caps:normal;font-variant-numeric:normal;font-variant-east-asian:normal;letter-spacing:3.61747659px;fill:#0486be;fill-opacity:1;stroke:none;stroke-width:0.517024;stroke-linecap:round;stroke-linejoin:round"
       x="69.254707"
       y="14.533958"
       id="text74084"><tspan
         sodipodi:role="line"
         id="tspan74082"
         x="69.254707"
         y="14.533958"
         style="font-style:normal;font-variant:normal;font-weight:bold;font-stretch:normal;font-size:19.72px;font-family:sans-serif;-inkscape-font-specification:'sans-serif, Bold';font-variant-ligatures:normal;font-variant-caps:normal;font-variant-numeric:normal;font-variant-east-asian:normal;fill:#0486be;fill-opacity:1;stroke-width:0.517024">MIKROTIK</tspan></text></g></g><rect
   style="fill:#ffffff;fill-opacity:0;stroke:none;stroke-width:4.03783;stroke-linecap:round;stroke-linejoin:round"
   id="rect72516"
   width="170"
   height="60"
   x="0"
   y="0" /></svg>
